<mxfile host="app.diagrams.net" agent="Mozilla/5.0 (Windows NT 10.0; Win64; x64) AppleWebKit/537.36 (KHTML, like Gecko) Chrome/127.0.0.0 Safari/537.36 OPR/113.0.0.0" version="24.7.16">
  <diagram name="PÃ¡gina-1" id="lc-kDUkgLfZonsg9K-N3">
    <mxGraphModel dx="1393" dy="801" grid="1" gridSize="10" guides="1" tooltips="1" connect="1" arrows="1" fold="1" page="1" pageScale="1" pageWidth="827" pageHeight="1169" math="0" shadow="0">
      <root>
        <mxCell id="0" />
        <mxCell id="1" parent="0" />
        <mxCell id="MbKp4PFsTTme_0ETobkg-6" style="edgeStyle=none;rounded=0;orthogonalLoop=1;jettySize=auto;html=1;exitX=0.5;exitY=1;exitDx=0;exitDy=0;" edge="1" parent="1" source="MbKp4PFsTTme_0ETobkg-1" target="MbKp4PFsTTme_0ETobkg-2">
          <mxGeometry relative="1" as="geometry" />
        </mxCell>
        <mxCell id="MbKp4PFsTTme_0ETobkg-1" value="Inico" style="ellipse;whiteSpace=wrap;html=1;" vertex="1" parent="1">
          <mxGeometry y="40" width="120" height="80" as="geometry" />
        </mxCell>
        <mxCell id="MbKp4PFsTTme_0ETobkg-7" style="edgeStyle=none;rounded=0;orthogonalLoop=1;jettySize=auto;html=1;exitX=0.5;exitY=1;exitDx=0;exitDy=0;entryX=0.5;entryY=0;entryDx=0;entryDy=0;" edge="1" parent="1" source="MbKp4PFsTTme_0ETobkg-2" target="MbKp4PFsTTme_0ETobkg-3">
          <mxGeometry relative="1" as="geometry" />
        </mxCell>
        <mxCell id="MbKp4PFsTTme_0ETobkg-2" value="Ler dado" style="shape=parallelogram;perimeter=parallelogramPerimeter;whiteSpace=wrap;html=1;fixedSize=1;" vertex="1" parent="1">
          <mxGeometry y="140" width="120" height="60" as="geometry" />
        </mxCell>
        <mxCell id="MbKp4PFsTTme_0ETobkg-8" style="edgeStyle=none;rounded=0;orthogonalLoop=1;jettySize=auto;html=1;exitX=0.5;exitY=1;exitDx=0;exitDy=0;entryX=0.5;entryY=0;entryDx=0;entryDy=0;" edge="1" parent="1" source="MbKp4PFsTTme_0ETobkg-3" target="MbKp4PFsTTme_0ETobkg-4">
          <mxGeometry relative="1" as="geometry" />
        </mxCell>
        <mxCell id="MbKp4PFsTTme_0ETobkg-3" value="Area=lado *lado" style="rounded=0;whiteSpace=wrap;html=1;" vertex="1" parent="1">
          <mxGeometry y="230" width="120" height="60" as="geometry" />
        </mxCell>
        <mxCell id="MbKp4PFsTTme_0ETobkg-9" style="edgeStyle=none;rounded=0;orthogonalLoop=1;jettySize=auto;html=1;exitX=0.5;exitY=1;exitDx=0;exitDy=0;entryX=0.5;entryY=0;entryDx=0;entryDy=0;" edge="1" parent="1" source="MbKp4PFsTTme_0ETobkg-4" target="MbKp4PFsTTme_0ETobkg-5">
          <mxGeometry relative="1" as="geometry" />
        </mxCell>
        <mxCell id="MbKp4PFsTTme_0ETobkg-4" value="Escrever Area" style="shape=parallelogram;perimeter=parallelogramPerimeter;whiteSpace=wrap;html=1;fixedSize=1;" vertex="1" parent="1">
          <mxGeometry y="330" width="120" height="60" as="geometry" />
        </mxCell>
        <mxCell id="MbKp4PFsTTme_0ETobkg-5" value="Fim" style="ellipse;whiteSpace=wrap;html=1;" vertex="1" parent="1">
          <mxGeometry y="430" width="120" height="80" as="geometry" />
        </mxCell>
        <mxCell id="MbKp4PFsTTme_0ETobkg-19" style="edgeStyle=none;rounded=0;orthogonalLoop=1;jettySize=auto;html=1;exitX=0.5;exitY=1;exitDx=0;exitDy=0;" edge="1" parent="1" source="MbKp4PFsTTme_0ETobkg-20" target="MbKp4PFsTTme_0ETobkg-22">
          <mxGeometry relative="1" as="geometry" />
        </mxCell>
        <mxCell id="MbKp4PFsTTme_0ETobkg-20" value="Inico" style="ellipse;whiteSpace=wrap;html=1;" vertex="1" parent="1">
          <mxGeometry x="200" y="40" width="120" height="80" as="geometry" />
        </mxCell>
        <mxCell id="MbKp4PFsTTme_0ETobkg-21" style="edgeStyle=none;rounded=0;orthogonalLoop=1;jettySize=auto;html=1;exitX=0.5;exitY=1;exitDx=0;exitDy=0;entryX=0.5;entryY=0;entryDx=0;entryDy=0;" edge="1" parent="1" source="MbKp4PFsTTme_0ETobkg-22" target="MbKp4PFsTTme_0ETobkg-24">
          <mxGeometry relative="1" as="geometry" />
        </mxCell>
        <mxCell id="MbKp4PFsTTme_0ETobkg-22" value="ler P1,P2,P3,P4" style="shape=parallelogram;perimeter=parallelogramPerimeter;whiteSpace=wrap;html=1;fixedSize=1;" vertex="1" parent="1">
          <mxGeometry x="200" y="140" width="120" height="60" as="geometry" />
        </mxCell>
        <mxCell id="MbKp4PFsTTme_0ETobkg-23" style="edgeStyle=none;rounded=0;orthogonalLoop=1;jettySize=auto;html=1;exitX=0.5;exitY=1;exitDx=0;exitDy=0;entryX=0.5;entryY=0;entryDx=0;entryDy=0;" edge="1" parent="1" source="MbKp4PFsTTme_0ETobkg-24" target="MbKp4PFsTTme_0ETobkg-26">
          <mxGeometry relative="1" as="geometry" />
        </mxCell>
        <mxCell id="MbKp4PFsTTme_0ETobkg-24" value="(P1+P2+P3+P$)/4=M" style="rounded=0;whiteSpace=wrap;html=1;" vertex="1" parent="1">
          <mxGeometry x="200" y="230" width="120" height="60" as="geometry" />
        </mxCell>
        <mxCell id="MbKp4PFsTTme_0ETobkg-25" style="edgeStyle=none;rounded=0;orthogonalLoop=1;jettySize=auto;html=1;exitX=0.5;exitY=1;exitDx=0;exitDy=0;entryX=0.5;entryY=0;entryDx=0;entryDy=0;" edge="1" parent="1" source="MbKp4PFsTTme_0ETobkg-26" target="MbKp4PFsTTme_0ETobkg-27">
          <mxGeometry relative="1" as="geometry" />
        </mxCell>
        <mxCell id="MbKp4PFsTTme_0ETobkg-26" value="Escrever M" style="shape=parallelogram;perimeter=parallelogramPerimeter;whiteSpace=wrap;html=1;fixedSize=1;" vertex="1" parent="1">
          <mxGeometry x="200" y="330" width="120" height="60" as="geometry" />
        </mxCell>
        <mxCell id="MbKp4PFsTTme_0ETobkg-27" value="Fim" style="ellipse;whiteSpace=wrap;html=1;" vertex="1" parent="1">
          <mxGeometry x="200" y="430" width="120" height="80" as="geometry" />
        </mxCell>
        <mxCell id="MbKp4PFsTTme_0ETobkg-28" style="edgeStyle=none;rounded=0;orthogonalLoop=1;jettySize=auto;html=1;exitX=0.5;exitY=1;exitDx=0;exitDy=0;" edge="1" parent="1" source="MbKp4PFsTTme_0ETobkg-29" target="MbKp4PFsTTme_0ETobkg-31">
          <mxGeometry relative="1" as="geometry" />
        </mxCell>
        <mxCell id="MbKp4PFsTTme_0ETobkg-29" value="Inico" style="ellipse;whiteSpace=wrap;html=1;" vertex="1" parent="1">
          <mxGeometry x="414" y="40" width="120" height="80" as="geometry" />
        </mxCell>
        <mxCell id="MbKp4PFsTTme_0ETobkg-30" style="edgeStyle=none;rounded=0;orthogonalLoop=1;jettySize=auto;html=1;exitX=0.5;exitY=1;exitDx=0;exitDy=0;entryX=0.5;entryY=0;entryDx=0;entryDy=0;" edge="1" parent="1" source="MbKp4PFsTTme_0ETobkg-31" target="MbKp4PFsTTme_0ETobkg-33">
          <mxGeometry relative="1" as="geometry" />
        </mxCell>
        <mxCell id="MbKp4PFsTTme_0ETobkg-31" value="Ler KMAntes,KMDepois,LGastos" style="shape=parallelogram;perimeter=parallelogramPerimeter;whiteSpace=wrap;html=1;fixedSize=1;" vertex="1" parent="1">
          <mxGeometry x="386" y="140" width="176" height="70" as="geometry" />
        </mxCell>
        <mxCell id="MbKp4PFsTTme_0ETobkg-32" style="edgeStyle=none;rounded=0;orthogonalLoop=1;jettySize=auto;html=1;exitX=0.5;exitY=1;exitDx=0;exitDy=0;entryX=0.5;entryY=0;entryDx=0;entryDy=0;" edge="1" parent="1" source="MbKp4PFsTTme_0ETobkg-33" target="MbKp4PFsTTme_0ETobkg-35">
          <mxGeometry relative="1" as="geometry" />
        </mxCell>
        <mxCell id="MbKp4PFsTTme_0ETobkg-33" value="Gasta=L Gastos*100/(KMDepois KMAntes" style="rounded=0;whiteSpace=wrap;html=1;" vertex="1" parent="1">
          <mxGeometry x="401" y="230" width="146" height="70" as="geometry" />
        </mxCell>
        <mxCell id="MbKp4PFsTTme_0ETobkg-34" style="edgeStyle=none;rounded=0;orthogonalLoop=1;jettySize=auto;html=1;exitX=0.5;exitY=1;exitDx=0;exitDy=0;entryX=0.5;entryY=0;entryDx=0;entryDy=0;" edge="1" parent="1" source="MbKp4PFsTTme_0ETobkg-35" target="MbKp4PFsTTme_0ETobkg-36">
          <mxGeometry relative="1" as="geometry" />
        </mxCell>
        <mxCell id="MbKp4PFsTTme_0ETobkg-35" value="Escrever Gasta" style="shape=parallelogram;perimeter=parallelogramPerimeter;whiteSpace=wrap;html=1;fixedSize=1;" vertex="1" parent="1">
          <mxGeometry x="414" y="330" width="120" height="60" as="geometry" />
        </mxCell>
        <mxCell id="MbKp4PFsTTme_0ETobkg-36" value="Fim" style="ellipse;whiteSpace=wrap;html=1;" vertex="1" parent="1">
          <mxGeometry x="414" y="430" width="120" height="80" as="geometry" />
        </mxCell>
        <mxCell id="MbKp4PFsTTme_0ETobkg-152" style="edgeStyle=none;rounded=0;orthogonalLoop=1;jettySize=auto;html=1;exitX=0.5;exitY=1;exitDx=0;exitDy=0;entryX=0.5;entryY=0;entryDx=0;entryDy=0;" edge="1" parent="1" source="MbKp4PFsTTme_0ETobkg-46" target="MbKp4PFsTTme_0ETobkg-47">
          <mxGeometry relative="1" as="geometry" />
        </mxCell>
        <mxCell id="MbKp4PFsTTme_0ETobkg-46" value="Inicio" style="ellipse;whiteSpace=wrap;html=1;" vertex="1" parent="1">
          <mxGeometry x="650" y="40" width="120" height="80" as="geometry" />
        </mxCell>
        <mxCell id="MbKp4PFsTTme_0ETobkg-153" style="edgeStyle=none;rounded=0;orthogonalLoop=1;jettySize=auto;html=1;exitX=0.5;exitY=1;exitDx=0;exitDy=0;entryX=0.5;entryY=0;entryDx=0;entryDy=0;" edge="1" parent="1" source="MbKp4PFsTTme_0ETobkg-47" target="MbKp4PFsTTme_0ETobkg-52">
          <mxGeometry relative="1" as="geometry" />
        </mxCell>
        <mxCell id="MbKp4PFsTTme_0ETobkg-47" value="Ler nota" style="shape=parallelogram;perimeter=parallelogramPerimeter;whiteSpace=wrap;html=1;fixedSize=1;" vertex="1" parent="1">
          <mxGeometry x="650" y="150" width="120" height="60" as="geometry" />
        </mxCell>
        <mxCell id="MbKp4PFsTTme_0ETobkg-160" style="edgeStyle=none;rounded=0;orthogonalLoop=1;jettySize=auto;html=1;" edge="1" parent="1" source="MbKp4PFsTTme_0ETobkg-50" target="MbKp4PFsTTme_0ETobkg-158">
          <mxGeometry relative="1" as="geometry" />
        </mxCell>
        <mxCell id="MbKp4PFsTTme_0ETobkg-165" value="Sim" style="edgeLabel;html=1;align=center;verticalAlign=middle;resizable=0;points=[];" vertex="1" connectable="0" parent="MbKp4PFsTTme_0ETobkg-160">
          <mxGeometry x="-0.4" y="1" relative="1" as="geometry">
            <mxPoint x="19" y="-2" as="offset" />
          </mxGeometry>
        </mxCell>
        <mxCell id="MbKp4PFsTTme_0ETobkg-162" style="edgeStyle=none;rounded=0;orthogonalLoop=1;jettySize=auto;html=1;exitX=1;exitY=0.5;exitDx=0;exitDy=0;entryX=0;entryY=0.5;entryDx=0;entryDy=0;" edge="1" parent="1" source="MbKp4PFsTTme_0ETobkg-50" target="MbKp4PFsTTme_0ETobkg-151">
          <mxGeometry relative="1" as="geometry" />
        </mxCell>
        <mxCell id="MbKp4PFsTTme_0ETobkg-164" value="Nao" style="edgeLabel;html=1;align=center;verticalAlign=middle;resizable=0;points=[];" vertex="1" connectable="0" parent="MbKp4PFsTTme_0ETobkg-162">
          <mxGeometry x="-0.0444" y="-4" relative="1" as="geometry">
            <mxPoint y="-14" as="offset" />
          </mxGeometry>
        </mxCell>
        <mxCell id="MbKp4PFsTTme_0ETobkg-50" value="nota&amp;gt;9,5" style="rhombus;whiteSpace=wrap;html=1;" vertex="1" parent="1">
          <mxGeometry x="670" y="380" width="80" height="80" as="geometry" />
        </mxCell>
        <mxCell id="MbKp4PFsTTme_0ETobkg-170" style="edgeStyle=none;rounded=0;orthogonalLoop=1;jettySize=auto;html=1;" edge="1" parent="1" source="MbKp4PFsTTme_0ETobkg-51">
          <mxGeometry relative="1" as="geometry">
            <mxPoint x="1000" y="70" as="targetPoint" />
            <Array as="points">
              <mxPoint x="1000" y="70" />
              <mxPoint x="760" y="70" />
            </Array>
          </mxGeometry>
        </mxCell>
        <mxCell id="MbKp4PFsTTme_0ETobkg-51" value="Mete numeros entre 0 e 20 burro estranho" style="shape=parallelogram;perimeter=parallelogramPerimeter;whiteSpace=wrap;html=1;fixedSize=1;" vertex="1" parent="1">
          <mxGeometry x="890" y="150" width="210" height="100" as="geometry" />
        </mxCell>
        <mxCell id="MbKp4PFsTTme_0ETobkg-154" style="edgeStyle=none;rounded=0;orthogonalLoop=1;jettySize=auto;html=1;exitX=0.5;exitY=1;exitDx=0;exitDy=0;" edge="1" parent="1" source="MbKp4PFsTTme_0ETobkg-52" target="MbKp4PFsTTme_0ETobkg-50">
          <mxGeometry relative="1" as="geometry" />
        </mxCell>
        <mxCell id="MbKp4PFsTTme_0ETobkg-155" style="edgeStyle=none;rounded=0;orthogonalLoop=1;jettySize=auto;html=1;exitX=1;exitY=0.5;exitDx=0;exitDy=0;" edge="1" parent="1" source="MbKp4PFsTTme_0ETobkg-52" target="MbKp4PFsTTme_0ETobkg-51">
          <mxGeometry relative="1" as="geometry">
            <Array as="points">
              <mxPoint x="1000" y="290" />
            </Array>
          </mxGeometry>
        </mxCell>
        <mxCell id="MbKp4PFsTTme_0ETobkg-163" value="sim" style="edgeLabel;html=1;align=center;verticalAlign=middle;resizable=0;points=[];" vertex="1" connectable="0" parent="MbKp4PFsTTme_0ETobkg-155">
          <mxGeometry x="-0.4573" relative="1" as="geometry">
            <mxPoint x="-66" y="-10" as="offset" />
          </mxGeometry>
        </mxCell>
        <mxCell id="MbKp4PFsTTme_0ETobkg-52" value="Nota=20&lt;span style=&quot;white-space: pre;&quot;&gt;&#x9;&lt;/span&gt;&lt;div&gt;or&lt;/div&gt;&lt;div&gt;Nota=0&lt;/div&gt;" style="rhombus;whiteSpace=wrap;html=1;" vertex="1" parent="1">
          <mxGeometry x="660" y="240" width="100" height="100" as="geometry" />
        </mxCell>
        <mxCell id="MbKp4PFsTTme_0ETobkg-151" value="reprovado" style="shape=parallelogram;perimeter=parallelogramPerimeter;whiteSpace=wrap;html=1;fixedSize=1;" vertex="1" parent="1">
          <mxGeometry x="920" y="390" width="120" height="60" as="geometry" />
        </mxCell>
        <mxCell id="MbKp4PFsTTme_0ETobkg-161" style="edgeStyle=none;rounded=0;orthogonalLoop=1;jettySize=auto;html=1;" edge="1" parent="1" source="MbKp4PFsTTme_0ETobkg-158" target="MbKp4PFsTTme_0ETobkg-159">
          <mxGeometry relative="1" as="geometry" />
        </mxCell>
        <mxCell id="MbKp4PFsTTme_0ETobkg-158" value="aprovado" style="shape=parallelogram;perimeter=parallelogramPerimeter;whiteSpace=wrap;html=1;fixedSize=1;" vertex="1" parent="1">
          <mxGeometry x="650" y="500" width="120" height="60" as="geometry" />
        </mxCell>
        <mxCell id="MbKp4PFsTTme_0ETobkg-168" style="edgeStyle=orthogonalEdgeStyle;rounded=0;orthogonalLoop=1;jettySize=auto;html=1;entryX=0.5;entryY=1;entryDx=0;entryDy=0;" edge="1" parent="1" source="MbKp4PFsTTme_0ETobkg-159" target="MbKp4PFsTTme_0ETobkg-151">
          <mxGeometry relative="1" as="geometry" />
        </mxCell>
        <mxCell id="MbKp4PFsTTme_0ETobkg-159" value="Fim" style="ellipse;whiteSpace=wrap;html=1;" vertex="1" parent="1">
          <mxGeometry x="650" y="600" width="120" height="80" as="geometry" />
        </mxCell>
        <mxCell id="MbKp4PFsTTme_0ETobkg-175" style="edgeStyle=none;rounded=0;orthogonalLoop=1;jettySize=auto;html=1;entryX=0.5;entryY=0;entryDx=0;entryDy=0;" edge="1" parent="1" source="MbKp4PFsTTme_0ETobkg-171" target="MbKp4PFsTTme_0ETobkg-172">
          <mxGeometry relative="1" as="geometry" />
        </mxCell>
        <mxCell id="MbKp4PFsTTme_0ETobkg-171" value="Inicio" style="ellipse;whiteSpace=wrap;html=1;" vertex="1" parent="1">
          <mxGeometry x="1260" y="40" width="120" height="80" as="geometry" />
        </mxCell>
        <mxCell id="MbKp4PFsTTme_0ETobkg-176" style="edgeStyle=none;rounded=0;orthogonalLoop=1;jettySize=auto;html=1;entryX=0.5;entryY=0;entryDx=0;entryDy=0;" edge="1" parent="1" source="MbKp4PFsTTme_0ETobkg-172" target="MbKp4PFsTTme_0ETobkg-173">
          <mxGeometry relative="1" as="geometry" />
        </mxCell>
        <mxCell id="MbKp4PFsTTme_0ETobkg-172" value="Ler P1,P2,P3" style="shape=parallelogram;perimeter=parallelogramPerimeter;whiteSpace=wrap;html=1;fixedSize=1;" vertex="1" parent="1">
          <mxGeometry x="1260" y="170" width="120" height="60" as="geometry" />
        </mxCell>
        <mxCell id="MbKp4PFsTTme_0ETobkg-181" style="edgeStyle=none;rounded=0;orthogonalLoop=1;jettySize=auto;html=1;" edge="1" parent="1" source="MbKp4PFsTTme_0ETobkg-173" target="MbKp4PFsTTme_0ETobkg-182">
          <mxGeometry relative="1" as="geometry">
            <mxPoint x="1325" y="510" as="targetPoint" />
          </mxGeometry>
        </mxCell>
        <mxCell id="MbKp4PFsTTme_0ETobkg-173" value="P1=P2&lt;div&gt;or&lt;br&gt;&lt;div&gt;P1=P3&lt;/div&gt;&lt;div&gt;or&lt;/div&gt;&lt;div&gt;P2=P3&lt;/div&gt;&lt;/div&gt;" style="rhombus;whiteSpace=wrap;html=1;" vertex="1" parent="1">
          <mxGeometry x="1260" y="270" width="130" height="100" as="geometry" />
        </mxCell>
        <mxCell id="MbKp4PFsTTme_0ETobkg-180" style="edgeStyle=none;rounded=0;orthogonalLoop=1;jettySize=auto;html=1;" edge="1" parent="1" source="MbKp4PFsTTme_0ETobkg-174">
          <mxGeometry relative="1" as="geometry">
            <mxPoint x="1540" y="70" as="targetPoint" />
            <Array as="points">
              <mxPoint x="1540" y="70" />
              <mxPoint x="1380" y="70" />
            </Array>
          </mxGeometry>
        </mxCell>
        <mxCell id="MbKp4PFsTTme_0ETobkg-174" value="Mete numeros sem serem iguais burro" style="rounded=0;whiteSpace=wrap;html=1;" vertex="1" parent="1">
          <mxGeometry x="1480" y="160" width="120" height="60" as="geometry" />
        </mxCell>
        <mxCell id="MbKp4PFsTTme_0ETobkg-178" style="edgeStyle=orthogonalEdgeStyle;rounded=0;orthogonalLoop=1;jettySize=auto;html=1;entryX=0.608;entryY=0.983;entryDx=0;entryDy=0;entryPerimeter=0;" edge="1" parent="1" source="MbKp4PFsTTme_0ETobkg-173" target="MbKp4PFsTTme_0ETobkg-174">
          <mxGeometry relative="1" as="geometry" />
        </mxCell>
        <mxCell id="MbKp4PFsTTme_0ETobkg-179" value="sim" style="edgeLabel;html=1;align=center;verticalAlign=middle;resizable=0;points=[];" vertex="1" connectable="0" parent="MbKp4PFsTTme_0ETobkg-178">
          <mxGeometry x="-0.4697" y="-4" relative="1" as="geometry">
            <mxPoint y="-14" as="offset" />
          </mxGeometry>
        </mxCell>
        <mxCell id="MbKp4PFsTTme_0ETobkg-185" style="edgeStyle=none;rounded=0;orthogonalLoop=1;jettySize=auto;html=1;entryX=1;entryY=0.5;entryDx=0;entryDy=0;" edge="1" parent="1" source="MbKp4PFsTTme_0ETobkg-182" target="MbKp4PFsTTme_0ETobkg-183">
          <mxGeometry relative="1" as="geometry" />
        </mxCell>
        <mxCell id="MbKp4PFsTTme_0ETobkg-201" value="Sim" style="edgeLabel;html=1;align=center;verticalAlign=middle;resizable=0;points=[];" vertex="1" connectable="0" parent="MbKp4PFsTTme_0ETobkg-185">
          <mxGeometry x="0.0857" y="-3" relative="1" as="geometry">
            <mxPoint x="4" y="-7" as="offset" />
          </mxGeometry>
        </mxCell>
        <mxCell id="MbKp4PFsTTme_0ETobkg-186" style="edgeStyle=none;rounded=0;orthogonalLoop=1;jettySize=auto;html=1;" edge="1" parent="1" source="MbKp4PFsTTme_0ETobkg-182" target="MbKp4PFsTTme_0ETobkg-184">
          <mxGeometry relative="1" as="geometry" />
        </mxCell>
        <mxCell id="MbKp4PFsTTme_0ETobkg-200" value="Nao" style="edgeLabel;html=1;align=center;verticalAlign=middle;resizable=0;points=[];" vertex="1" connectable="0" parent="MbKp4PFsTTme_0ETobkg-186">
          <mxGeometry x="-0.1556" y="2" relative="1" as="geometry">
            <mxPoint y="-8" as="offset" />
          </mxGeometry>
        </mxCell>
        <mxCell id="MbKp4PFsTTme_0ETobkg-182" value="P1&amp;gt;P2" style="rhombus;whiteSpace=wrap;html=1;" vertex="1" parent="1">
          <mxGeometry x="1285" y="470" width="80" height="80" as="geometry" />
        </mxCell>
        <mxCell id="MbKp4PFsTTme_0ETobkg-187" style="edgeStyle=none;rounded=0;orthogonalLoop=1;jettySize=auto;html=1;" edge="1" parent="1" source="MbKp4PFsTTme_0ETobkg-183" target="MbKp4PFsTTme_0ETobkg-190">
          <mxGeometry relative="1" as="geometry">
            <mxPoint x="1210" y="670" as="targetPoint" />
            <Array as="points">
              <mxPoint x="1200" y="700" />
            </Array>
          </mxGeometry>
        </mxCell>
        <mxCell id="MbKp4PFsTTme_0ETobkg-211" style="edgeStyle=none;rounded=0;orthogonalLoop=1;jettySize=auto;html=1;entryX=0.5;entryY=0;entryDx=0;entryDy=0;" edge="1" parent="1" source="MbKp4PFsTTme_0ETobkg-183" target="MbKp4PFsTTme_0ETobkg-191">
          <mxGeometry relative="1" as="geometry" />
        </mxCell>
        <mxCell id="MbKp4PFsTTme_0ETobkg-214" value="Nao" style="edgeLabel;html=1;align=center;verticalAlign=middle;resizable=0;points=[];" vertex="1" connectable="0" parent="MbKp4PFsTTme_0ETobkg-211">
          <mxGeometry x="-0.2511" relative="1" as="geometry">
            <mxPoint x="9" y="-15" as="offset" />
          </mxGeometry>
        </mxCell>
        <mxCell id="MbKp4PFsTTme_0ETobkg-183" value="P1&amp;gt;P3" style="rhombus;whiteSpace=wrap;html=1;" vertex="1" parent="1">
          <mxGeometry x="1170" y="470" width="80" height="80" as="geometry" />
        </mxCell>
        <mxCell id="MbKp4PFsTTme_0ETobkg-188" style="edgeStyle=none;rounded=0;orthogonalLoop=1;jettySize=auto;html=1;" edge="1" parent="1" source="MbKp4PFsTTme_0ETobkg-184" target="MbKp4PFsTTme_0ETobkg-189">
          <mxGeometry relative="1" as="geometry">
            <mxPoint x="1450" y="660" as="targetPoint" />
            <Array as="points">
              <mxPoint x="1450" y="700" />
            </Array>
          </mxGeometry>
        </mxCell>
        <mxCell id="MbKp4PFsTTme_0ETobkg-212" style="edgeStyle=none;rounded=0;orthogonalLoop=1;jettySize=auto;html=1;entryX=0.5;entryY=0;entryDx=0;entryDy=0;" edge="1" parent="1" source="MbKp4PFsTTme_0ETobkg-184" target="MbKp4PFsTTme_0ETobkg-191">
          <mxGeometry relative="1" as="geometry" />
        </mxCell>
        <mxCell id="MbKp4PFsTTme_0ETobkg-213" value="Nao" style="edgeLabel;html=1;align=center;verticalAlign=middle;resizable=0;points=[];" vertex="1" connectable="0" parent="MbKp4PFsTTme_0ETobkg-212">
          <mxGeometry x="-0.3833" y="1" relative="1" as="geometry">
            <mxPoint x="-18" y="-15" as="offset" />
          </mxGeometry>
        </mxCell>
        <mxCell id="MbKp4PFsTTme_0ETobkg-184" value="P2&amp;gt;P3" style="rhombus;whiteSpace=wrap;html=1;" vertex="1" parent="1">
          <mxGeometry x="1410" y="470" width="80" height="80" as="geometry" />
        </mxCell>
        <mxCell id="MbKp4PFsTTme_0ETobkg-189" value="Imprima P2" style="shape=parallelogram;perimeter=parallelogramPerimeter;whiteSpace=wrap;html=1;fixedSize=1;" vertex="1" parent="1">
          <mxGeometry x="1390" y="680" width="120" height="60" as="geometry" />
        </mxCell>
        <mxCell id="MbKp4PFsTTme_0ETobkg-208" style="edgeStyle=none;rounded=0;orthogonalLoop=1;jettySize=auto;html=1;entryX=0.5;entryY=1;entryDx=0;entryDy=0;" edge="1" parent="1" source="MbKp4PFsTTme_0ETobkg-190" target="MbKp4PFsTTme_0ETobkg-202">
          <mxGeometry relative="1" as="geometry" />
        </mxCell>
        <mxCell id="MbKp4PFsTTme_0ETobkg-190" value="Imprima P1" style="shape=parallelogram;perimeter=parallelogramPerimeter;whiteSpace=wrap;html=1;fixedSize=1;" vertex="1" parent="1">
          <mxGeometry x="1140" y="680" width="120" height="60" as="geometry" />
        </mxCell>
        <mxCell id="MbKp4PFsTTme_0ETobkg-209" style="edgeStyle=none;rounded=0;orthogonalLoop=1;jettySize=auto;html=1;" edge="1" parent="1" source="MbKp4PFsTTme_0ETobkg-191" target="MbKp4PFsTTme_0ETobkg-202">
          <mxGeometry relative="1" as="geometry">
            <Array as="points">
              <mxPoint x="1320" y="770" />
            </Array>
          </mxGeometry>
        </mxCell>
        <mxCell id="MbKp4PFsTTme_0ETobkg-191" value="Imprima P3" style="shape=parallelogram;perimeter=parallelogramPerimeter;whiteSpace=wrap;html=1;fixedSize=1;" vertex="1" parent="1">
          <mxGeometry x="1260" y="680" width="120" height="60" as="geometry" />
        </mxCell>
        <mxCell id="MbKp4PFsTTme_0ETobkg-192" value="Fim" style="ellipse;whiteSpace=wrap;html=1;" vertex="1" parent="1">
          <mxGeometry x="1260" y="810" width="120" height="80" as="geometry" />
        </mxCell>
        <mxCell id="MbKp4PFsTTme_0ETobkg-202" value="" style="ellipse;whiteSpace=wrap;html=1;aspect=fixed;fillColor=#1A1A1A;strokeColor=#b85450;" vertex="1" parent="1">
          <mxGeometry x="1295" y="750" width="50" height="50" as="geometry" />
        </mxCell>
        <mxCell id="MbKp4PFsTTme_0ETobkg-207" style="edgeStyle=none;rounded=0;orthogonalLoop=1;jettySize=auto;html=1;entryX=0.9;entryY=0.66;entryDx=0;entryDy=0;entryPerimeter=0;" edge="1" parent="1" source="MbKp4PFsTTme_0ETobkg-189" target="MbKp4PFsTTme_0ETobkg-202">
          <mxGeometry relative="1" as="geometry">
            <Array as="points">
              <mxPoint x="1330" y="790" />
            </Array>
          </mxGeometry>
        </mxCell>
      </root>
    </mxGraphModel>
  </diagram>
</mxfile>
